<?xml version="1.0" encoding="utf-8"?>
<!-- Generator: Adobe Illustrator 21.1.0, SVG Export Plug-In . SVG Version: 6.00 Build 0)  -->
<svg version="1.1" id="Ebene_1" xmlns="http://www.w3.org/2000/svg" xmlns:xlink="http://www.w3.org/1999/xlink" x="0px" y="0px"
	 viewBox="0 0 288 297" style="enable-background:new 0 0 288 297;" xml:space="preserve">
<style type="text/css">
	.st0{fill:#03ECA2;}
	.st1{enable-background:new    ;}
	.st2{fill:#FFFFFF;}
</style>
<title>Zeichenfläche 1</title>
<path class="st0" d="M144,216"/>
<polygon class="st0" points="288,144 144,0 0,144 144,288 "/>
<text transform="matrix(1 0 0 1 -392.284 194.5404)" class="st2" style="font-family:'Mada-Bold'; font-size:179.3341px;">1</text>
<g class="st1">
	<path class="st2" d="M101.1,194.5v-15.1c14.5-13.7,26.3-25.7,35.6-35.8s13.9-19.2,13.9-27.3c0-5.5-1.5-9.7-4.4-12.7
		s-6.8-4.5-11.7-4.5c-4.2,0-7.9,1.2-11.1,3.6s-6.3,5.1-9.1,8.1L99.8,96.6c5.6-6,11.4-10.5,17.2-13.5c5.9-3,12.9-4.6,21-4.6
		c11.2,0,20.3,3.3,27.3,10c6.9,6.6,10.4,15.4,10.4,26.3c0,9.6-3.8,19.4-11.3,29.4s-15.9,19.9-25.1,29.6c2.9-0.4,6.1-0.7,9.7-1
		c3.6-0.3,6.7-0.4,9.3-0.4h23v22.2h-80.2V194.5z"/>
</g>
</svg>
