<?xml version="1.0" encoding="utf-8"?>
<!-- Generator: Adobe Illustrator 21.1.0, SVG Export Plug-In . SVG Version: 6.00 Build 0)  -->
<svg version="1.1" id="Ebene_1" xmlns="http://www.w3.org/2000/svg" xmlns:xlink="http://www.w3.org/1999/xlink" x="0px" y="0px"
	 viewBox="0 0 288 297" style="enable-background:new 0 0 288 297;" xml:space="preserve">
<style type="text/css">
	.st0{fill:#03ECA2;}
	.st1{enable-background:new    ;}
	.st2{fill:#FFFFFF;}
</style>
<title>Zeichenfläche 1</title>
<path class="st0" d="M144,216"/>
<polygon class="st0" points="288,144 144,0 0,144 144,288 "/>
<text transform="matrix(1 0 0 1 -392.284 194.5404)" class="st2" style="font-family:'Mada-Bold'; font-size:179.3341px;">1</text>
<g class="st1">
	<path class="st2" d="M137.1,196.7c-9.2,0-17.1-1.5-23.7-4.5c-6.6-3-11.9-6.9-16-11.7l12.2-16.7c3.3,3.3,7.1,6.1,11.3,8.2
		c4.2,2.2,8.7,3.2,13.6,3.2c5.6,0,10.1-1.2,13.4-3.5c3.3-2.3,5-5.6,5-10c0-5-2-9-6.1-11.9c-4.1-2.9-12.3-4.4-24.6-4.4v-18.7
		c10.2,0,17.2-1.4,21.1-4.2c3.9-2.8,5.8-6.5,5.8-11c0-8.4-4.7-12.6-14-12.6c-4.1,0-7.7,0.9-11,2.7c-3.3,1.8-6.7,4.2-10.3,7.4
		L100.7,93c5.3-4.5,10.8-8.1,16.7-10.7c5.9-2.6,12.3-3.9,19.2-3.9c11.7,0,21.2,2.7,28.4,8.2c7.2,5.4,10.8,13.1,10.8,23
		c0,11.5-6.3,19.9-19,25.3v0.7c6.6,1.9,12,5.2,16.2,9.9c4.2,4.7,6.4,10.6,6.4,17.9c0,10.6-4.2,18.8-12.6,24.6
		C158.5,193.8,148.6,196.7,137.1,196.7z"/>
</g>
</svg>
